<svg width="48" height="38" viewBox="0 0 48 38" fill="none" xmlns="http://www.w3.org/2000/svg">
<g filter="url(#filter0_d_85_8)">
<rect x="4.77524" y="0.790649" width="38.7301" height="36.2093" stroke="black" shape-rendering="crispEdges"/>
<path d="M4.27524 18.8953C4.27524 10.125 4.27524 5.73982 7.18441 3.01524C10.0936 0.290649 14.7758 0.290649 24.1403 0.290649C33.5048 0.290649 38.187 0.290649 41.0962 3.01524C44.0053 5.73982 44.0053 10.125 44.0053 18.8953C44.0053 27.6656 44.0053 32.0507 41.0962 34.7754C38.187 37.5 33.5048 37.5 24.1403 37.5C14.7758 37.5 10.0936 37.5 7.18441 34.7754C4.27524 32.0507 4.27524 27.6656 4.27524 18.8953Z" fill="#243A5A"/>
<path d="M28.1133 24.4767C28.6619 24.4767 29.1166 24.8972 29.0077 25.4008C28.8151 26.2901 28.3472 27.1144 27.652 27.7655C26.7207 28.6378 25.4575 29.1278 24.1403 29.1278C22.8232 29.1278 21.56 28.6378 20.6287 27.7655C19.9334 27.1144 19.4656 26.2901 19.2731 25.4008C19.164 24.8972 19.6187 24.4767 20.1673 24.4767H28.1133Z" fill="#2DF8BB"/>
<path d="M18.0793 16.8269C18.6092 16.9599 18.9337 17.479 18.665 17.9269C18.3822 18.3984 17.9911 18.8098 17.5153 19.1292C16.7682 19.6305 15.8585 19.8739 14.9413 19.8175C14.0241 19.7612 13.1561 19.4089 12.4852 18.8204C11.8143 18.2319 11.3821 17.4438 11.2621 16.5903C11.1421 15.7368 11.3418 14.8707 11.8272 14.1397C12.3126 13.4087 13.0536 12.8579 13.924 12.5812C14.7944 12.3044 15.7404 12.3189 16.6006 12.6222C17.1484 12.8153 17.64 13.1179 18.0434 13.5047C18.4267 13.8722 18.2567 14.4524 17.7816 14.7092L17.2777 14.9817C16.5114 15.3961 16.6626 16.4714 17.5173 16.6859L18.0793 16.8269Z" fill="#2DF8BB"/>
<path d="M30.2014 16.8269C29.6715 16.9599 29.347 17.479 29.6157 17.9269C29.8985 18.3984 30.2896 18.8098 30.7655 19.1292C31.5126 19.6305 32.4222 19.8739 33.3395 19.8175C34.2567 19.7612 35.1247 19.4089 35.7955 18.8204C36.4664 18.2319 36.8986 17.4438 37.0186 16.5903C37.1386 15.7368 36.9389 14.8707 36.4535 14.1397C35.9681 13.4087 35.2271 12.8579 34.3567 12.5812C33.4863 12.3044 32.5404 12.3189 31.6802 12.6222C31.1323 12.8153 30.6408 13.1179 30.2374 13.5047C29.8541 13.8722 30.024 14.4524 30.4991 14.7092L31.003 14.9817C31.7693 15.3961 31.6182 16.4714 30.7634 16.6859L30.2014 16.8269Z" fill="#2DF8BB"/>
</g>
<defs>
<filter id="filter0_d_85_8" x="0.275238" y="0.290649" width="47.7301" height="45.2094" filterUnits="userSpaceOnUse" color-interpolation-filters="sRGB">
<feFlood flood-opacity="0" result="BackgroundImageFix"/>
<feColorMatrix in="SourceAlpha" type="matrix" values="0 0 0 0 0 0 0 0 0 0 0 0 0 0 0 0 0 0 127 0" result="hardAlpha"/>
<feOffset dy="4"/>
<feGaussianBlur stdDeviation="2"/>
<feComposite in2="hardAlpha" operator="out"/>
<feColorMatrix type="matrix" values="0 0 0 0 0 0 0 0 0 0 0 0 0 0 0 0 0 0 0.25 0"/>
<feBlend mode="normal" in2="BackgroundImageFix" result="effect1_dropShadow_85_8"/>
<feBlend mode="normal" in="SourceGraphic" in2="effect1_dropShadow_85_8" result="shape"/>
</filter>
</defs>
</svg>
